<svg width="42" height="34" viewBox="0 0 42 34" fill="none" xmlns="http://www.w3.org/2000/svg">
<path d="M6.75 1H35.25C36.9076 1 38.4968 1.65895 39.6689 2.83105C40.841 4.00316 41.5 5.5924 41.5 7.25V26.75C41.5 28.4076 40.841 29.9968 39.6689 31.1689C38.4968 32.341 36.9076 33 35.25 33H6.75C5.0924 33 3.50316 32.341 2.33105 31.1689C1.15895 29.9968 0.5 28.4076 0.5 26.75V7.25C0.5 5.5924 1.15895 4.00316 2.33105 2.83105C3.50316 1.65895 5.0924 1 6.75 1ZM2.5 26.75C2.5 27.8772 2.94809 28.9579 3.74512 29.7549C4.54215 30.5519 5.62283 31 6.75 31H35.25C36.3772 31 37.4579 30.5519 38.2549 29.7549C39.0519 28.9579 39.5 27.8772 39.5 26.75V12H2.5V26.75ZM28.5 22H33C33.2652 22 33.5195 22.1054 33.707 22.293C33.8946 22.4805 34 22.7348 34 23C34 23.2652 33.8946 23.5195 33.707 23.707C33.5195 23.8946 33.2652 24 33 24H28.5C28.2348 24 27.9805 23.8946 27.793 23.707C27.6054 23.5195 27.5 23.2652 27.5 23C27.5 22.7348 27.6054 22.4805 27.793 22.293C27.9805 22.1054 28.2348 22 28.5 22ZM6.75 3C5.62283 3 4.54215 3.44809 3.74512 4.24512C2.94809 5.04215 2.5 6.12283 2.5 7.25V10H39.5V7.25C39.5 6.12283 39.0519 5.04215 38.2549 4.24512C37.4579 3.44809 36.3772 3 35.25 3H6.75Z" fill="#4CAF4F" stroke="#4CAF4F"/>
</svg>
