<svg width="48" height="32" viewBox="0 0 48 32" fill="none" xmlns="http://www.w3.org/2000/svg">
<path d="M16.4999 0.735931C18.8587 0.735931 21.161 1.46172 23.0936 2.81406C25.0259 4.16628 26.4955 6.07988 27.3036 8.2955C28.1117 10.5115 28.2195 12.9228 27.6112 15.2018C27.0029 17.4806 25.7081 19.5173 23.9032 21.0357L23.2958 21.5475L24.0184 21.8746C26.9917 23.2201 29.5508 25.3372 31.4286 28.0064L31.4354 28.0162L31.4432 28.026C31.589 28.2128 31.6953 28.4277 31.7557 28.6568C31.8162 28.8861 31.8296 29.1255 31.7948 29.36C31.76 29.5944 31.6779 29.8193 31.5536 30.0211C31.4292 30.2229 31.265 30.3973 31.0712 30.5338C30.8773 30.6703 30.6576 30.766 30.4257 30.815C30.1938 30.864 29.954 30.8662 29.7216 30.8199C29.4892 30.7736 29.2685 30.6796 29.0731 30.5455C28.8778 30.4114 28.7115 30.2389 28.5848 30.0387L28.579 30.0289L28.5721 30.0191L28.3114 29.6598C26.984 27.8851 25.2724 26.4307 23.3026 25.4068C21.2014 24.3147 18.8679 23.7447 16.4999 23.7447C14.1319 23.7447 11.7983 24.3147 9.69714 25.4068C7.5961 26.4989 5.78925 28.0812 4.42859 30.0191L4.42761 30.0201C4.26766 30.2498 4.05386 30.4378 3.80554 30.567C3.55736 30.6961 3.2816 30.763 3.00183 30.7623H2.99792C2.63907 30.7634 2.28891 30.6516 1.99695 30.443L1.995 30.442L1.85828 30.3346C1.55451 30.0715 1.34853 29.7105 1.27917 29.3111C1.19996 28.8546 1.30489 28.3846 1.57117 28.0055C3.44896 25.3365 6.00823 23.22 8.98132 21.8746L9.70398 21.5475L9.09656 21.0357C7.29172 19.5173 5.99686 17.4806 5.38855 15.2018C4.78027 12.9228 4.88805 10.5115 5.69617 8.2955C6.50434 6.07965 7.9746 4.16631 9.9071 2.81406C11.8397 1.46174 14.1411 0.735953 16.4999 0.735931ZM28.6649 1.1832H28.6659L28.6747 1.18124C29.6848 0.893697 30.7299 0.747882 31.7802 0.749603H31.7831C34.1431 0.742831 36.4479 1.46401 38.3837 2.81406C40.3196 4.1642 41.7923 6.0783 42.6014 8.2955C43.4105 10.5126 43.5164 12.9251 42.9052 15.2047C42.2939 17.4844 40.9953 19.5208 39.1854 21.0357L38.5751 21.5465L39.2997 21.8746C42.273 23.2201 44.832 25.3372 46.7098 28.0064L46.7118 28.0094C46.8452 28.196 46.94 28.4077 46.9911 28.6314C47.0421 28.8551 47.0489 29.0871 47.0096 29.3131C46.9704 29.539 46.886 29.7546 46.7626 29.9478C46.6391 30.1412 46.4785 30.3083 46.2899 30.4391L46.2841 30.443C45.992 30.6517 45.642 30.7624 45.2831 30.7613C45.0026 30.7595 44.7262 30.6926 44.4774 30.5631C44.2906 30.4658 44.1238 30.3356 43.9833 30.1803L43.8514 30.0172C42.4881 28.0832 40.6809 26.5042 38.5809 25.4137C36.4806 24.323 34.1487 23.7522 31.7821 23.7496H31.7811C31.3171 23.7496 30.872 23.5659 30.5438 23.2379C30.2156 22.9097 30.0311 22.4637 30.0311 21.9996C30.0312 21.5356 30.2157 21.0904 30.5438 20.7623C30.872 20.4342 31.3171 20.2496 31.7811 20.2496C33.9029 20.2496 35.9381 19.4071 37.4384 17.9068C38.9386 16.4066 39.7811 14.3713 39.7811 12.2496C39.781 10.1281 38.9384 8.09353 37.4384 6.59335C35.9381 5.09306 33.9029 4.2496 31.7811 4.2496C31.05 4.24832 30.3221 4.3498 29.619 4.55038L29.6132 4.55234C29.3908 4.61864 29.1574 4.63955 28.9266 4.61484C28.6959 4.59011 28.4727 4.51969 28.2694 4.40781C28.0661 4.29587 27.8864 4.14524 27.7421 3.96347C27.5978 3.78169 27.4915 3.57262 27.4286 3.34921C27.3657 3.12581 27.3476 2.89205 27.3759 2.66171C27.4042 2.43135 27.4785 2.20896 27.5936 2.00742C27.7087 1.80588 27.8627 1.62932 28.0468 1.48788C28.2307 1.34652 28.4407 1.24259 28.6649 1.1832ZM18.0604 4.4039C16.5086 4.09528 14.9001 4.25351 13.4384 4.85898C11.9767 5.46445 10.7275 6.48984 9.84851 7.80527C8.96953 9.12075 8.49996 10.6675 8.49988 12.2496C8.49988 14.3712 9.34252 16.4066 10.8427 17.9068C12.3429 19.4071 14.3782 20.2496 16.4999 20.2496C18.082 20.2496 19.6287 19.7809 20.9442 18.9019C22.2598 18.0229 23.286 16.7729 23.8915 15.3111C24.4968 13.8494 24.6552 12.2407 24.3466 10.6891C24.0379 9.13738 23.2758 7.7121 22.1571 6.59335C21.0383 5.47453 19.6123 4.71258 18.0604 4.4039Z" fill="#4CAF4F" stroke="#4CAF4F"/>
</svg>
