<svg width="16" height="16" viewBox="0 0 16 16" fill="none" xmlns="http://www.w3.org/2000/svg">
<path d="M4.17478 5.87897C4.56611 5.20117 5.13724 4.6448 5.82505 4.27135C6.51285 3.89791 7.29053 3.72194 8.0721 3.7629C8.85367 3.80386 9.6087 4.06015 10.2537 4.50345C10.8987 4.94675 11.4085 5.55977 11.7269 6.27476M3.19873 4.56094L3.58566 6.23698C3.65157 6.52245 3.9364 6.70043 4.22187 6.63453L5.89791 6.2476M11.5252 10.1227C11.1339 10.8005 10.5628 11.3568 9.87497 11.7303C9.18717 12.1037 8.40949 12.2797 7.62792 12.2388C6.84634 12.1978 6.09132 11.9415 5.44632 11.4982C4.80132 11.0549 4.29147 10.4419 3.97314 9.72689M12.5013 11.4407L12.1144 9.76467C12.0485 9.4792 11.7636 9.30121 11.4782 9.36712L9.80211 9.75405" stroke="#717171" stroke-linecap="round"/>
</svg>
